<svg width="149" height="120" viewBox="0 0 149 120" fill="none" xmlns="http://www.w3.org/2000/svg">
<path fill-rule="evenodd" clip-rule="evenodd" d="M22.6792 25.7809L75.4186 0L125.979 25.7809L96.9947 40.9341C99.077 43.7442 100.263 46.9782 100.263 50.4196C100.263 61.2336 88.5542 70 74.111 70C59.6678 70 47.9593 61.2336 47.9593 50.4196C47.9593 46.7269 49.3245 43.273 51.6978 40.3253L22.6792 25.7809ZM71.7677 80.6914L41.0143 93.832L18.1241 84.0488C15.2928 82.8389 15.295 80.8779 18.1241 79.668L38.624 70.9072C41.4553 69.6973 46.0439 69.6973 48.8752 70.9072L56.5624 74.1934L42.4677 80.2168C41.7593 80.5186 41.7593 81.0088 42.4677 81.3115L45.0293 82.4062C45.1974 82.4782 45.397 82.5353 45.6168 82.5743C45.8366 82.6132 46.0722 82.6333 46.3101 82.6333C46.5481 82.6333 46.7837 82.6132 47.0034 82.5743C47.2232 82.5353 47.4229 82.4782 47.5909 82.4062L61.6857 76.3828L71.7677 80.6914ZM129.785 75.792C134.07 77.624 134.072 80.5938 129.785 82.4258L119.269 86.9209L93.4012 75.8662L103.917 71.373C108.207 69.541 115.158 69.541 119.445 71.373L129.785 75.792ZM20.3612 107.077L88.2299 78.0771L114.098 89.1309L46.2473 118.128L21.6934 119.968C18.38 120.217 15.4961 118.984 16.0743 117.569L20.3612 107.077ZM123.19 102.666L130.877 105.951C133.709 107.161 133.709 109.122 130.877 110.332L110.377 119.092C107.546 120.302 102.958 120.302 100.126 119.092L77.2269 109.307L107.98 96.166L118.067 100.477L103.972 106.5C103.266 106.802 103.266 107.292 103.972 107.595L106.534 108.689C107.24 108.992 108.387 108.992 109.096 108.689L123.19 102.666Z" fill="#D68102"/>
<path d="M16.29 69.03V75H1.08V73.95L2.55 73.92V55.98L1.08 55.95V54.9H15.69V60.72L14.52 60.69L14.46 59.19C12.24 57.81 9.93 56.65 7.53 55.71L7.59 64.05H13.2V65.16H7.59L7.65 74.16C10.21 73.18 12.68 71.98 15.06 70.56L15.12 69.06L16.29 69.03ZM25.6308 73.95L27.1008 73.92V55.98L25.6308 55.95V54.9L31.4208 54.96L35.6808 54.6C38.6608 54.6 40.9608 55.43 42.5808 57.09C44.2208 58.75 45.0408 61.15 45.0408 64.29C45.0408 66.41 44.6308 68.28 43.8108 69.9C42.9908 71.5 41.7608 72.75 40.1208 73.65C38.4808 74.55 36.4808 75 34.1208 75H25.6308V73.95ZM32.9208 73.95C35.0608 73.95 36.7208 73.21 37.9008 71.73C39.1008 70.25 39.7008 68.02 39.7008 65.04C39.7008 63.06 39.3608 61.4 38.6808 60.06C38.0208 58.7 37.1108 57.69 35.9508 57.03C34.8108 56.35 33.5208 56.01 32.0808 56.01V73.95H32.9208ZM74.2617 54.9V55.95L72.7917 55.98V75H71.8317L67.9917 72.48C67.2517 73.38 66.3617 74.1 65.3217 74.64C64.2817 75.18 63.1917 75.45 62.0517 75.45C59.9717 75.45 58.3617 74.79 57.2217 73.47C56.0817 72.15 55.5117 70.1 55.5117 67.32V55.98L54.0417 55.95V54.9H62.0517V55.95L60.5817 55.98V66.57C60.5817 68.41 60.9617 69.79 61.7217 70.71C62.4817 71.61 63.5217 72.06 64.8417 72.06C65.9617 72.06 66.9517 71.83 67.8117 71.37V55.98L66.3417 55.95V54.9H74.2617ZM103.229 73.95V75H95.9993L91.9193 66.96L92.0093 66.9C91.5493 66.94 90.8993 66.98 90.0593 67.02V73.92L91.5293 73.95V75H83.6093V73.95L85.0793 73.92V55.98L83.6093 55.95V54.9L89.3993 54.96L93.8693 54.6C95.3093 54.6 96.5393 54.87 97.5593 55.41C98.5993 55.93 99.3793 56.64 99.8993 57.54C100.439 58.42 100.709 59.4 100.709 60.48C100.709 61.72 100.349 62.8 99.6293 63.72C98.9093 64.64 97.8293 65.38 96.3893 65.94L101.759 73.92L103.229 73.95ZM90.0593 65.85C91.7193 65.75 93.0193 65.3 93.9593 64.5C94.8993 63.68 95.3693 62.58 95.3693 61.2C95.3693 60.22 95.1393 59.33 94.6793 58.53C94.2193 57.73 93.5893 57.1 92.7893 56.64C91.9893 56.18 91.0793 55.95 90.0593 55.95V65.85ZM111.881 73.95L113.351 73.92V55.98L111.881 55.95V54.9H119.801V55.95L118.331 55.98V73.92L119.801 73.95V75H111.881V73.95ZM148.719 73.95V75H139.689V73.95L141.159 73.92L139.779 69H134.679L133.689 73.92L135.219 73.95V75H128.439V73.95L129.909 73.92L136.629 55.14L140.349 54.63L147.249 73.92L148.719 73.95ZM139.449 67.89L136.809 58.5L134.919 67.89H139.449Z" fill="#333333"/>
</svg>
